# xmcd
#
# Track frame offsets:
# 150
# 21375
# 39000
# 63375
# 83775
# 104625
# 125850
# 149400
# 171225
# 189975
# 204450
# 233400
# 255750
# 288900
# 308475
#
# Disc length: 4437 seconds
#
#
# Revision: 0
# Processed by: cddbd v1.5.2PL0 Copyright (c) Steve Scherf et al.
# Submitted via: FreeRIP 2.951 
#
DISCID=c711530f
DTITLE=Eric Clapton - Clapton Chronicles
DYEAR=1999
DGENRE=Blues
TTITLE0=Blue Eyes Blue
TTITLE1=Change The World
TTITLE2=My Father's Eyes
TTITLE3=Tears In Heaven
TTITLE4=Layla
TTITLE5=Pretending
TTITLE6=Bad Love
TTITLE7=Before You Accuse Me (Take A Look At Yourself)
TTITLE8=It's In The Way You Use It
TTITLE9=Forever Man
TTITLE10=Running On Faith
TTITLE11=She's Waiting
TTITLE12=River Of Tears
TTITLE13=Get Lost
TTITLE14=Wonderful Tonight
EXTD=
EXTT0=
EXTT1=
EXTT2=
EXTT3=
EXTT4=
EXTT5=
EXTT6=
EXTT7=
EXTT8=
EXTT9=
EXTT10=
EXTT11=
EXTT12=
EXTT13=
EXTT14=
PLAYORDER=
